<svg width="500" height="507" viewBox="0 0 500 507" fill="none" xmlns="http://www.w3.org/2000/svg">
<path d="M207.398 290.006C204.057 290.792 201.031 292.609 198.728 295.213C196.426 297.817 194.957 301.083 194.521 304.57C172.192 299.887 147.17 295.906 128.083 308.69C120.476 314.252 113.968 321.244 108.905 329.295C94.293 350.367 83.1515 373.875 67.8091 394.292C62.9039 400.782 57.4819 406.844 51.599 412.414C30.52 384.193 15.3864 351.789 7.15683 317.257C-1.07279 282.724 -2.21906 246.814 3.79084 211.804C23.7533 217.125 42.4766 226.487 58.8594 239.338C61.9982 242.038 65.3942 244.407 68.9962 246.409C73.637 248.474 78.5422 249.846 83.5624 250.483C117.607 256.567 151.261 264.761 184.338 275.021C193.243 277.644 203.06 281.483 207.398 290.006Z" fill="#2C2D48"/>
<path d="M228.311 200.05C225.115 209.416 220.777 220.514 211.325 223.792C198.905 228.1 187.261 216.768 175.982 209.744C146.302 191.434 107.992 202.907 73.9735 196.023C53.0146 191.809 33.6996 180.57 13.8823 172.281C19.8098 154.724 27.6041 137.89 37.1242 122.082L160.686 125.828C175.389 126.249 190.412 126.811 204.201 132.103C217.991 137.395 230.457 148.54 233.699 163.243C236.074 175.606 232.101 188.203 228.311 200.05Z" fill="#2C2D48"/>
<path d="M190.823 97.216C180.823 99.0631 170.594 99.2055 160.549 97.6374C148.905 95.1556 138.494 88.2719 126.759 86.0241C113.334 83.6827 99.7725 88.0377 86.2566 89.9108C77.2817 91.134 68.2073 91.4008 59.1789 90.7069C76.8653 69.2518 97.8771 50.931 121.371 36.4802C126.667 41.163 131.37 46.6419 136.348 51.6525C153.539 69.0426 174.44 82.0926 197.398 89.7704C200.32 92.7205 194.886 96.7009 190.823 97.216Z" fill="#2C2D48"/>
<path d="M306.439 6.60376C301.873 33.5298 297.763 67.48 292.01 78.7187C287.809 86.8667 283.334 95.3426 275.845 100.353C262.147 109.438 243.882 104.146 230.959 94.0782C218.037 84.0102 208.905 70.0087 196.941 58.9573C190.001 52.5887 182.193 47.2972 175.206 41.0222C168.728 34.8257 162.629 28.2261 156.941 21.2609L155.252 19.1536C203.244 -0.986219 256.144 -5.3708 306.667 6.60376H306.439Z" fill="#2C2D48"/>
<path d="M459.589 116.649C438.904 168.16 402.968 226.273 363.973 263.314C344.293 282.045 322.147 298.997 308.676 322.786C305.591 329.339 301.592 335.397 296.804 340.768C294.393 343.419 291.222 345.215 287.75 345.897C284.278 346.579 280.685 346.111 277.489 344.561C273.479 321.937 273.139 298.789 276.484 276.051C278.318 260.617 281.186 245.331 285.069 230.301C299.589 174.622 328.448 123.486 337.169 66.9181C339.506 50.5479 340.544 34.0103 340.274 17.4679C389.196 36.8924 430.932 71.5858 459.589 116.649V116.649Z" fill="#485987"/>
<path d="M500 256.431C500.006 308.727 484.426 359.775 455.348 402.736C426.27 445.696 385.083 478.517 337.306 496.798C322.055 465.985 315.526 435.922 339.133 409.324C357.763 388.485 390.731 357.532 408.448 335.851C421.005 320.538 441.827 306.537 448.904 287.852C462.329 252.388 475.738 216.939 489.133 181.506C496.345 205.793 500.008 231.042 500 256.431V256.431Z" fill="#D4A418"/>
<path d="M192.421 506.07C156.595 497.412 123.094 480.698 94.3387 457.135C104.286 450.707 112.214 441.471 117.17 430.537C122.238 419.205 123.928 406.514 129.498 395.463C135.069 384.412 146.759 374.765 158.54 377.809C168.311 380.337 174.247 390.359 178.037 399.912C189.407 428.523 190.777 460.132 192.01 491.039C192.01 496.049 192.238 501.013 192.421 506.07Z" fill="#2C2D48"/>
</svg>
